<?xml version="1.0" encoding="UTF-8"?>
<svg width="102px" height="27px" viewBox="0 0 102 27" version="1.1" xmlns="http://www.w3.org/2000/svg" xmlns:xlink="http://www.w3.org/1999/xlink">
    <!-- Generator: Sketch 52.2 (67145) - http://www.bohemiancoding.com/sketch -->
    <title>Yester Logo Copy</title>
    <desc>Created with Sketch.</desc>
    <defs>
        <polygon id="path-1" points="6.29965067e-05 0.301725 21.1566612 0.301725 21.1566612 26.2343463 6.29965067e-05 26.2343463"></polygon>
        <polygon id="path-3" points="0.268645033 0.35532 15.3220887 0.35532 15.3220887 18.225 0.268645033 18.225"></polygon>
    </defs>
    <g id="Landing-Page---V1" stroke="none" stroke-width="1" fill="none" fill-rule="evenodd">
        <g id="Yester-Logo" transform="translate(0.000000, -0.452885)">
            <g id="Group-17">
                <g id="Group-3" transform="translate(0.000000, 0.373343)">
                    <mask id="mask-2" fill="white">
                        <use xlink:href="#path-1"></use>
                    </mask>
                    <g id="Clip-2"></g>
                    <path d="M16.3531669,10.60776 C19.5638026,7.519635 21.8165841,1.37106 20.9816702,0.583335 C20.0332728,-0.31104 13.4080013,0.950535 9.9447298,3.97926 C8.72410728,5.04576 7.76084901,6.23376 7.0894053,7.408935 C7.09278278,6.57666 7.27111391,5.69646 7.64804106,4.83921 C7.67303444,4.78251 7.70208079,4.730535 7.72774967,4.675185 C6.0477894,5.126085 4.27933907,6.52401 3.24447815,8.873685 C2.31837219,10.97766 2.18800132,13.374585 2.6419351,15.198435 C2.62504768,15.180885 2.60545828,15.16671 2.58857086,15.148485 C1.80026623,14.306085 1.50980265,13.145085 1.66516689,11.93211 C1.36592185,12.333735 1.09369669,12.760335 0.862001325,13.215285 C-0.123548344,15.14916 -0.197177483,17.09991 0.304716556,18.601785 L0.300663576,18.60246 C0.300663576,18.60246 0.638411921,19.75131 1.66854437,20.85291 C2.82904768,18.512685 8.15601457,8.389035 14.7927695,5.45076 C14.7927695,5.45076 7.53118013,10.870335 2.80337881,20.50866 L2.80337881,20.507985 C2.80337881,20.507985 1.16935232,23.371335 1.16935232,26.134785 C1.16935232,26.24751 1.32674305,26.273835 1.35781589,26.16516 C1.69083576,24.98931 2.30216026,23.13576 3.07560397,21.968685 C3.59168344,22.26636 4.19422649,22.515435 4.90282252,22.66731 C4.99874305,22.68756 5.08858411,22.70241 5.17639868,22.715235 C6.88810728,23.040585 8.90243841,22.65651 10.6952066,21.55356 C11.7624914,20.896785 12.5710609,20.040885 13.1290212,19.11276 C11.7071007,19.773585 10.2122265,19.938285 8.93756424,19.64601 C10.7884252,19.31256 12.9554185,18.357435 15.0413523,16.717185 C17.650796,14.663835 19.1537762,11.827485 19.5975775,9.493335 C19.0916305,9.842985 18.5052993,10.13256 17.8568225,10.333035 C17.3502,10.48896 16.844253,10.577385 16.3531669,10.60776" id="Fill-1" fill="#FFFFFF" mask="url(#mask-2)"></path>
                </g>
                <g id="Group-6" transform="translate(22.966887, 8.473343)">
                    <mask id="mask-4" fill="white">
                        <use xlink:href="#path-3"></use>
                    </mask>
                    <g id="Clip-5"></g>
                    <polygon id="Fill-4" fill="#FFFFFF" mask="url(#mask-4)" points="7.58157219 18.22527 3.65828742 18.22527 5.79353245 13.26402 0.268645033 0.35532 4.1919298 0.35532 7.71464503 8.863695 11.3981285 0.35532 15.3220887 0.35532"></polygon>
                </g>
                <path d="M43.2667788,12.1630275 C42.6351894,12.5896275 42.2217854,13.1944275 42.0258914,13.9767525 L48.4586464,13.9767525 C48.2445139,13.1593275 47.8534013,12.5450775 47.2832821,12.1367025 C46.7145139,11.7269775 46.0559046,11.5231275 45.3081298,11.5231275 C44.5785934,11.5231275 43.8990437,11.7364275 43.2667788,12.1630275 Z M52.0617457,16.4567025 L41.9191629,16.4567025 C42.097494,17.3996775 42.4926596,18.1502775 43.1066861,18.7105275 C43.7207126,19.2707775 44.4367391,19.5502275 45.2547656,19.5502275 C46.7678781,19.5502275 47.8702887,18.9636525 48.5646993,17.7905025 L51.7145404,18.4574025 C51.1450967,19.8087525 50.2993748,20.8307025 49.1787258,21.5239275 C48.0580768,22.2178275 46.7496397,22.5641025 45.2547656,22.5641025 C43.333653,22.5641025 41.7144874,21.9066525 40.3979444,20.5904025 C39.0814013,19.2748275 38.4227921,17.5859775 38.4227921,15.5238525 C38.4227921,13.4610525 39.0854543,11.7674775 40.4107788,10.4424525 C41.7361033,9.1181025 43.3687788,8.4559275 45.3081298,8.4559275 C47.1238649,8.4559275 48.6849377,9.0911025 49.9926993,10.3628025 C51.3011364,11.6338275 51.990143,13.2653025 52.0617457,15.2565525 L52.0617457,16.4567025 Z" id="Fill-7" fill="#FFFFFF"></path>
                <path d="M56.6256715,17.9236125 C56.7857642,19.1325375 57.7024132,19.7380125 59.3742675,19.7380125 C60.0153139,19.7380125 60.5226119,19.6131375 60.8961616,19.3640625 C61.2697113,19.1156625 61.4561483,18.7950375 61.4561483,18.4035375 C61.4561483,17.8176375 60.9670887,17.4173625 59.9889695,17.2040625 L57.2660424,16.6438125 C56.0562278,16.3947375 55.1260689,15.9411375 54.4769166,15.2836875 C53.8270887,14.6255625 53.5028503,13.8162375 53.5028503,12.8563875 C53.5028503,11.5583625 53.9966384,10.5006375 54.9842146,9.6825375 C55.9717907,8.8644375 57.2930623,8.4560625 58.9480291,8.4560625 C60.4955921,8.4560625 61.7905192,8.8205625 62.8314596,9.5495625 C63.8724,10.2785625 64.5080424,11.2296375 64.7397377,12.4027875 L61.3764397,13.0703625 C61.3055126,12.5182125 61.0427444,12.0740625 60.5888106,11.7365625 C60.1355523,11.3983875 59.5525987,11.2296375 58.8406252,11.2296375 C58.2002543,11.2296375 57.7375391,11.3578875 57.453155,11.6164125 C57.1687709,11.8742625 57.0262411,12.1807125 57.0262411,12.5364375 C57.0262411,13.1054625 57.4268106,13.4787375 58.2272742,13.6569375 L61.4027841,14.3501625 C62.542347,14.5985625 63.4096848,15.0568875 64.0054728,15.7231125 C64.6019364,16.3906875 64.899155,17.1858375 64.899155,18.1105875 C64.899155,19.5503625 64.3702411,20.6533125 63.3110623,21.4180875 C62.2525589,22.1821875 60.8333404,22.5642375 59.0547576,22.5642375 C57.4707179,22.5642375 56.1183735,22.2402375 54.9977245,21.5915625 C53.8770755,20.9422125 53.2360291,19.9600875 53.0759364,18.6438375 L56.6256715,17.9236125 Z" id="Fill-9" fill="#FFFFFF"></path>
                <path d="M76.7770887,21.577455 C75.5497113,22.23558 74.3925854,22.564305 73.3070623,22.564305 C71.6696583,22.564305 70.3889166,22.12488 69.4641616,21.24468 C68.5387311,20.363805 68.0760159,19.03473 68.0760159,17.257455 L68.0760159,11.73663 L65.2200159,11.73663 L65.2200159,8.85573 L68.0760159,8.85573 L68.0760159,4.82868 L71.5987311,4.82868 L71.5987311,8.85573 L75.9489298,8.85573 L75.9489298,11.73663 L71.5987311,11.73663 L71.5987311,16.990155 C71.5987311,18.519705 72.2485589,19.28448 73.5475391,19.28448 C74.2237113,19.28448 74.9613536,19.070505 75.7624927,18.643905 L76.7770887,21.577455 Z" id="Fill-11" fill="#FFFFFF"></path>
                <path d="M81.6480954,12.1630275 C81.0158305,12.5896275 80.6024265,13.1944275 80.4065325,13.9767525 L86.8392874,13.9767525 C86.6258305,13.1593275 86.2340424,12.5450775 85.6645987,12.1367025 C85.0958305,11.7269775 84.4372212,11.5231275 83.6894464,11.5231275 C82.9599099,11.5231275 82.2796848,11.7364275 81.6480954,12.1630275 Z M90.4423868,16.4567025 L80.3004795,16.4567025 C80.4781351,17.3996775 80.8739762,18.1502775 81.4880026,18.7105275 C82.1020291,19.2707775 82.8173801,19.5502275 83.6360821,19.5502275 C85.1491947,19.5502275 86.2516053,18.9636525 86.9460159,17.7905025 L90.0951815,18.4574025 C89.5257377,19.8087525 88.6806914,20.8307025 87.5600424,21.5239275 C86.4387179,22.2178275 85.1309563,22.5641025 83.6360821,22.5641025 C81.7149695,22.5641025 80.095804,21.9066525 78.7785854,20.5904025 C77.4620424,19.2748275 76.8034331,17.5859775 76.8034331,15.5238525 C76.8034331,13.4610525 77.4667709,11.7674775 78.7920954,10.4424525 C80.1174199,9.1181025 81.7500954,8.4559275 83.6894464,8.4559275 C85.504506,8.4559275 87.0662543,9.0911025 88.3740159,10.3628025 C89.6817775,11.6338275 90.3707841,13.2653025 90.4423868,15.2565525 L90.4423868,16.4567025 Z" id="Fill-13" fill="#FFFFFF"></path>
                <path d="M101.812685,8.7761475 L101.626248,12.1632975 L100.851453,12.1632975 C97.6847245,12.1632975 96.1013603,14.0654475 96.1013603,17.8704225 L96.1013603,22.1640975 L92.5779695,22.1640975 L92.5779695,8.8557975 L96.1013603,8.8557975 L96.1013603,11.2830975 C97.3111748,9.5402475 98.9033205,8.6694975 100.878473,8.6694975 C101.287824,8.6694975 101.599228,8.7052725 101.812685,8.7761475" id="Fill-15" fill="#FFFFFF"></path>
            </g>
        </g>
    </g>
</svg>